<?xml version="1.0" encoding="UTF-8"?>
<svg width="110px" height="52px" viewBox="0 0 110 52" version="1.1" xmlns="http://www.w3.org/2000/svg" xmlns:xlink="http://www.w3.org/1999/xlink">
    <!-- Generator: Sketch 46 (44423) - http://www.bohemiancoding.com/sketch -->
    <title>Group 15</title>
    <desc>Created with Sketch.</desc>
    <defs></defs>
    <g id="Page-2" stroke="none" stroke-width="1" fill="none" fill-rule="evenodd">
        <g id="Group-15" fill="#807C7C">
            <g id="Group-14" transform="translate(0.000000, 37.400000)">
                <path d="M6.38416473,1.99349798 C6.375049,2.03398804 6.50283551,2.784 6.65840024,2.784 C6.91760024,2.784 7.09040024,2.5392 7.09040024,2.352 C7.09040024,1.704 5.54960024,0.8112 4.28240024,0.8112 C2.51120024,0.8112 0.740000242,1.9056 0.740000242,3.8208 C0.740000242,7.0608 6.83120024,5.4624 6.83120024,8.5296 C6.83120024,10.0416 5.43440024,11.136 3.74960024,11.136 C2.64080024,11.136 1.76240024,10.6032 1.18640024,10.0416 C1.04240024,9.8976 0.912800242,9.7824 0.725600242,9.7824 C0.653600242,9.7824 0.596000242,9.7824 0.509600242,9.8256 L0.380000242,9.9264 C0.322400242,10.0128 0.293600242,10.0992 0.293600242,10.2 C0.293600242,10.4016 0.408800242,10.5312 0.509600242,10.6464 L0.495200242,10.6464 C1.33040024,11.5392 2.48240024,11.9856 3.69200024,11.9856 C5.73680024,11.9856 7.73840024,10.7184 7.76720024,8.5584 C7.76720024,6.2832 5.90960024,5.88 4.16720024,5.4768 L4.18160024,5.4912 C2.88560024,5.1888 1.64720024,4.9008 1.64720024,3.7632 C1.64720024,2.568 2.71280024,1.6752 4.19600024,1.6752 C5.13200024,1.6752 5.73680024,2.0064 6.18320024,2.4672 L6.38416473,1.99349799 L6.38416473,1.99349798 Z M14.1464002,3.4608 C14.2616002,3.4464 14.4056002,3.4464 14.5352002,3.4464 C15.8024002,3.4464 16.8968002,3.9216 17.6168002,4.512 C18.3080002,5.088 18.9848002,6.0528 18.9848002,7.4064 C18.9848002,10.2144 16.4504002,11.9712 13.9160002,11.9712 C11.5112002,11.9712 9.4520002,10.5168 9.4520002,7.9968 C9.4520002,4.7856 12.3464002,3.6192 14.1464002,3.4608 Z M11.5976002,5.3904 C10.9640002,5.9376 10.4312002,6.8016 10.4312002,7.9536 C10.4312002,9.9264 11.9432002,11.1072 13.9016002,11.1072 C16.0472002,11.1072 17.9912002,9.6816 17.9912002,7.464 C17.9912002,5.4768 16.4936002,4.3104 14.5640002,4.3104 C13.2968002,4.3104 12.2744002,4.7856 11.5976002,5.3904 Z M29.3240002,9.6816 C29.2376002,9.624 29.1656002,9.5952 29.0504002,9.5952 C28.8344002,9.5952 28.7048002,9.7248 28.5752002,9.8544 C27.8840002,10.5456 26.8040002,11.1504 25.4936002,11.1504 C23.6072002,11.1504 21.9944002,9.9984 21.9944002,7.9248 C21.9944002,5.8512 23.8376002,4.3536 26.0840002,4.3536 C26.8616002,4.3536 27.6104002,4.5984 28.1576002,4.9584 C28.3016002,5.016 28.4168002,5.1456 28.6616002,5.1456 C28.8056002,5.1456 29.0792002,5.0304 29.0792002,4.7136 C29.0792002,4.2096 27.3368002,3.4896 26.1128002,3.4896 C23.8232002,3.4896 21.0152002,4.9872 21.0152002,7.9824 C21.0152002,10.128 22.6712002,11.9856 25.3784002,11.9856 C26.9768002,11.9856 28.3160002,11.3808 29.1800002,10.5312 C29.3096002,10.4016 29.4680002,10.2432 29.4680002,10.0128 C29.4680002,9.9408 29.4392002,9.8976 29.4248002,9.8256 L29.3240002,9.6816 Z M32.3912001,3.8064 C32.4488001,3.72 32.4776001,3.6336 32.4776001,3.4896 C32.4776001,3.1872 32.4776001,2.7408 31.9448001,2.7408 C31.3832001,2.7408 31.2392001,2.8704 31.2392001,3.4464 C31.2392001,4.0224 31.3544001,4.0512 31.8440001,4.0512 C32.0600001,4.0512 32.2472001,4.008 32.3768001,3.8208 L32.3912001,3.8064 Z M32.5496001,10.92 C32.5208001,9.1488 32.4920001,7.3056 32.3912001,5.5344 L32.3912001,5.376 C32.3912001,4.9296 32.3768001,4.5552 31.9304001,4.5552 C31.4984001,4.5552 31.4120001,4.8 31.4120001,5.16 C31.4120001,7.2048 31.5704001,8.9328 31.5704001,10.8624 C31.5704001,11.3808 31.5704001,11.8704 32.0744001,11.8704 C32.5496001,11.8704 32.5496001,11.5248 32.5496001,11.0208 L32.5496001,10.92 Z M42.4280001,10.2576 C42.4280001,10.56 42.2696001,10.6464 42.0680001,10.6896 C42.2120001,11.0352 42.4712001,11.2224 42.4712001,11.6112 C42.4712001,12 42.2264001,12 42.0248001,12 C41.4488001,12 41.3480001,11.1936 41.0168001,10.8048 C39.1016001,10.9344 37.2008001,11.0928 35.3000001,11.2656 C35.1416001,11.2656 34.9832001,11.3088 34.8104001,11.3088 C34.6664001,11.3088 34.4792001,11.2656 34.2056001,11.1216 C34.1912001,10.6752 34.3496001,10.3872 34.4504001,10.1712 L34.5656001,9.9264 L34.5656001,9.9408 C35.3576001,8.0976 36.1640001,6.4848 36.9128001,4.5696 C37.0856001,4.0368 37.2296001,3.4896 37.8344001,3.4896 C38.2664001,3.4896 38.4392001,3.864 38.6408001,4.2384 L39.9224001,6.672 C40.3688001,7.5216 40.8440001,8.3856 41.2904001,9.2496 L41.3768001,9.4224 C41.4920001,9.6528 41.5784001,9.8688 41.6072001,9.8688 C41.6648001,9.8688 41.8088001,9.8256 41.9672001,9.8256 C42.2264001,9.8256 42.4280001,9.8976 42.4280001,10.2576 Z M38.0072001,4.512 L37.8056001,4.584 C37.7912001,4.584 37.7912001,4.5984 37.7768001,4.5984 L37.8056001,4.7136 C37.8200001,4.7424 37.8200001,4.7568 37.8344001,4.7712 C37.8920001,4.6704 37.9496001,4.5552 38.0072001,4.512 Z M37.8056001,4.8576 L36.7832001,7.176 C36.2936001,8.2704 35.6744001,9.4656 35.4008001,10.3728 C36.3512001,10.3584 37.1432001,10.2576 38.1368001,10.1568 L39.8072001,9.9984 C40.0664001,9.9696 40.3112001,9.9696 40.5848001,9.9264 L40.3688001,9.5088 L39.9368001,8.7024 C39.2600001,7.4496 38.5112001,6.0672 37.8344001,4.7712 L37.8056001,4.8576 Z M45.4664001,10.0272 C45.4664001,9.9696 45.4808001,9.9264 45.4808001,9.8688 C45.4808001,8.1984 45.3080001,6.2544 45.3080001,4.4976 L45.3080001,4.4256 C45.3080001,4.0656 45.3080001,3.4176 44.8184001,3.4176 C44.3864001,3.4176 44.3288001,3.7632 44.3288001,4.224 C44.3288001,4.3104 44.3432001,4.3824 44.3432001,4.4544 L44.3432001,4.6128 C44.4296001,6.672 44.5160001,8.8176 44.5160001,10.7904 C44.5160001,10.8336 44.5016001,10.9056 44.5016001,10.9632 L44.5016001,11.1216 C44.5016001,11.5392 44.6024001,11.8848 45.1640001,11.8848 C45.3800001,11.8848 45.4952001,11.856 45.6248001,11.856 L46.6040001,11.7696 C47.7416001,11.6688 48.9080001,11.5968 50.0456001,11.4672 C50.4056001,11.4528 50.8808001,11.3952 50.8808001,11.0064 C50.8808001,10.6608 50.5928001,10.5888 50.3048001,10.5888 C50.2472001,10.5888 50.0744001,10.6032 50.0312001,10.6032 C48.3752001,10.7328 46.8632001,10.9344 45.4952001,10.9776 C45.4664001,10.7184 45.4664001,10.4448 45.4664001,10.1856 L45.4664001,10.0272 Z M68.2184,9.336 C68.2184,9.5088 68.1464,9.5952 68.0456,9.696 L67.9448,9.7968 L67.9736,9.768 C67.3256,10.4592 66.3464,11.1072 65.1224,11.1072 C62.5016,11.1072 61.4072,8.7456 61.4072,6.672 C61.4072,3.8208 63.3368,1.704 65.5976,1.704 C66.4472,1.704 67.124,2.0064 67.6712,2.4096 L67.6568,2.4096 C67.6568,2.424 68.0888,2.784 68.348,2.784 C68.5352,2.784 68.7656,2.6256 68.7656,2.352 C68.7656,1.8192 66.9944,0.8256 65.6264,0.8256 C64.0136,0.8256 62.7176,1.7184 61.9112,2.6976 C61.076,3.72 60.5,4.9872 60.5,6.7296 C60.5,9.4224 62.0984,11.9712 65.036,11.9712 C66.4472,11.9712 67.5128,11.424 68.2472,10.7328 L68.2472,11.8416 C68.2472,12.7776 68.3048,13.8864 68.7512,13.8864 C69.1544,13.8864 69.2264,13.6272 69.2264,13.2672 C69.2264,11.1648 69.0968,9.2352 69.068,7.2624 L69.068,7.032 C69.068,6.9456 69.0824,6.8736 69.0824,6.7872 C69.0824,6.3984 68.996,6.0672 68.42,6.0672 C68.0024,6.0672 67.4984,6.1968 67.4984,6.5568 C67.4984,6.888 67.7432,6.9744 67.9448,6.9744 C68.0024,6.9744 68.06,6.96 68.1032,6.96 L68.132,6.96 C68.204,7.7376 68.2184,8.616 68.2184,9.336 Z M78.1039211,3.42850523 C77.8612691,3.51191469 77.8087999,3.74555735 77.8087999,3.9792 C77.8087999,5.8512 77.9383999,7.2192 77.9383999,8.76 C77.9383999,10.4592 75.9799999,11.0352 74.4103999,11.0352 C72.6535999,11.0352 71.8039999,10.4016 71.8039999,8.6592 L71.7607999,6.888 C71.7463999,6.2256 71.7319999,5.4192 71.7031999,4.7424 L71.7031999,4.6992 C71.7031999,4.3536 71.7031999,3.9504 71.2135999,3.9504 C70.8247999,3.9504 70.7239999,4.2672 70.7239999,4.584 C70.7239999,5.5488 70.7527999,6.5568 70.7959999,7.4496 L70.8535999,8.8176 C70.8535999,11.1504 72.4375999,11.8992 74.4391999,11.8992 C77.0599999,11.8992 78.9031999,10.7616 78.9031999,8.5008 C78.9031999,7.2624 78.8167999,5.8368 78.7879999,4.3824 C78.7735999,3.9792 78.7447999,3.3888 78.2983999,3.3888 C78.242397,3.3888 78.1863942,3.3888 78.1039211,3.42850523 L78.1039211,3.42850523 Z M81.8551999,3.8064 C81.9127999,3.72 81.9415999,3.6336 81.9415999,3.4896 C81.9415999,3.1872 81.9415999,2.7408 81.4087999,2.7408 C80.8471999,2.7408 80.7031999,2.8704 80.7031999,3.4464 C80.7031999,4.0224 80.8183999,4.0512 81.3079999,4.0512 C81.5239999,4.0512 81.7111999,4.008 81.8407999,3.8208 L81.8551999,3.8064 Z M82.0135999,10.92 C81.9847999,9.1488 81.9559999,7.3056 81.8551999,5.5344 L81.8551999,5.376 C81.8551999,4.9296 81.8407999,4.5552 81.3943999,4.5552 C80.9623999,4.5552 80.8759999,4.8 80.8759999,5.16 C80.8759999,7.2048 81.0343999,8.9328 81.0343999,10.8624 C81.0343999,11.3808 81.0343999,11.8704 81.5383999,11.8704 C82.0135999,11.8704 82.0135999,11.5248 82.0135999,11.0208 L82.0135999,10.92 Z M84.0583999,3.4176 C84.3751999,3.4176 84.4471999,3.5616 84.5047999,3.7488 C85.2679999,3.6624 86.0743999,3.4032 87.0247999,3.4032 C89.5303999,3.4032 91.5463999,4.9296 91.5463999,7.3344 C91.5463999,10.1568 89.1415999,11.5248 86.7079999,11.6976 C86.0311999,11.7552 85.1239999,11.8992 84.3031999,11.8992 C83.7703999,11.8992 83.7415999,11.64 83.7415999,11.1504 C83.7415999,11.0496 83.7559999,10.9632 83.7559999,10.8624 L83.7559999,10.6608 C83.6839999,8.7024 83.6839999,6.7296 83.5831999,4.6704 L83.5831999,4.6848 C83.5687999,4.5696 83.5543999,4.3824 83.5543999,4.1808 C83.5543999,3.6624 83.6695999,3.4176 84.0583999,3.4176 Z M86.5351999,10.848 C88.6663999,10.6896 90.5815999,9.5952 90.5815999,7.4064 C90.5815999,5.5632 89.1703999,4.2672 86.9815999,4.2672 C86.2615999,4.2672 85.1815999,4.368 84.5911999,4.6416 C84.5911999,6.528 84.7063999,8.5296 84.7351999,10.4304 L84.7351999,10.704 C84.7351999,10.8048 84.7351999,10.8912 84.7495999,10.992 C85.3543999,10.9776 85.9591999,10.9056 86.5351999,10.848 Z M99.9559998,11.0208 L99.9559998,11.1072 C99.9559998,11.568 99.3799998,11.6112 99.1639998,11.6112 C97.4935998,11.7552 96.1831998,11.8272 94.5415998,11.9712 C94.3111998,11.9712 94.0951998,12.0288 93.9943998,12.0288 C93.4759998,12.0288 93.4615998,11.7984 93.4615998,11.28 C93.4615998,8.832 93.2743998,6.7296 93.2743998,4.2528 L93.2743998,4.1664 C93.2743998,3.8064 93.2743998,3.504 93.7351998,3.504 C94.0519998,3.504 94.1383998,3.6768 94.1959998,3.8784 C95.1895998,3.8352 96.1975998,3.7344 97.2343998,3.648 L98.5735998,3.5328 C98.6599998,3.5184 98.8183998,3.5184 98.8903998,3.5184 C99.2071998,3.5184 99.4519998,3.6048 99.4519998,3.9216 C99.4519998,4.3248 99.0055998,4.3536 98.6743998,4.3824 L95.9383998,4.5984 C95.5207998,4.6272 95.1031998,4.656 94.6567998,4.6992 L94.6711998,4.6992 C94.5847998,4.7136 94.4119998,4.7424 94.3111998,4.7424 C94.2823998,4.7424 94.2535998,4.7424 94.2535998,4.728 L94.2535998,4.8432 C94.2535998,4.9008 94.2679998,4.9296 94.2679998,4.9584 C94.3543998,6.9456 94.3255998,8.8464 94.4263998,10.8048 C94.4263998,10.8768 94.4119998,10.9632 94.4119998,11.0208 L94.4119998,11.136 C94.6279998,11.1216 94.8727998,11.0928 95.1463998,11.064 L95.5783998,11.0208 L99.2647998,10.7616 C99.3079998,10.7616 99.3799998,10.7472 99.4375998,10.7472 C99.6535998,10.7472 99.8695998,10.7904 99.9559998,11.0208 Z M98.1415998,5.9376 L98.1559998,5.9376 C98.1847998,5.9376 98.3143998,5.9088 98.4007998,5.9088 C98.6167998,5.9088 98.8183998,5.9952 98.8615998,6.2544 C98.8615998,6.672 95.6071998,7.0464 94.7575998,7.0464 C94.4551998,7.0464 94.2103998,6.96 94.1671998,6.6864 C94.1671998,6.168 96.9319998,5.9808 98.1415998,5.9376 Z M102.1448,3.3744 C101.684,3.3744 101.6552,3.6624 101.6552,4.008 C101.6552,6.3984 101.8424,8.6016 101.8424,10.8192 L101.8424,10.9056 C101.8424,11.3232 101.8424,11.856 102.3464,11.856 C102.7496,11.856 102.8504,11.5968 102.8504,11.1936 L102.8504,11.0208 C102.8504,10.9488 102.836,10.8912 102.836,10.8192 C102.7496,8.7312 102.7064,6.7296 102.6632,4.7568 C103.4984,4.3968 104.8952,4.2672 105.9752,4.2672 C107.5304,4.2672 108.9272,4.8144 108.9272,6.1104 C108.9272,6.9456 108.2504,7.536 107.732,7.8528 C107.3144,8.0976 106.724,8.3136 106.1336,8.4288 C105.8312,8.4288 105.4136,8.544 105.4136,8.9328 C105.4136,9.2784 105.6152,9.3504 105.9032,9.3504 C106.1336,9.3504 106.3064,9.2928 106.4072,9.2928 C106.652,9.2928 107.8616,11.1936 108.668,11.1936 C108.7976,11.1936 109.1288,11.0928 109.1288,10.8048 C109.1288,10.3872 107.8184,9.4656 107.3864,8.9904 C108.5528,8.4288 109.892,7.7664 109.892,6.0816 C109.892,4.0944 107.8616,3.36 106.004,3.36 C104.78,3.36 103.5848,3.6336 102.62,3.8496 C102.5912,3.6048 102.5192,3.3744 102.1448,3.3744 Z" id="Social-Guider"></path>
            </g>
            <g id="Group-13" transform="translate(30.200000, 0.000000)">
                <path d="M22.2,37.2 C12.5902454,37.2 4.8,29.4097546 4.8,19.8 C4.8,10.1902454 12.5902454,2.4 22.2,2.4 C31.8097546,2.4 39.6,10.1902454 39.6,19.8 C39.6,29.4097546 31.8097546,37.2 22.2,37.2 Z M22.2,34.7833333 C30.4750665,34.7833333 37.1833333,28.0750665 37.1833333,19.8 C37.1833333,11.5249335 30.4750665,4.81666667 22.2,4.81666667 C13.9249335,4.81666667 7.21666667,11.5249335 7.21666667,19.8 C7.21666667,28.0750665 13.9249335,34.7833333 22.2,34.7833333 Z" id="Combined-Shape-Copy-3" opacity="0.5"></path>
                <path d="M14.4,36 C6.4470996,36 0,29.8215295 0,22.2 C0,14.5784705 6.4470996,8.4 14.4,8.4 C22.3529004,8.4 28.8,14.5784705 28.8,22.2 C28.8,29.8215295 22.3529004,36 14.4,36 Z M14.4,34.1288136 C21.274541,34.1288136 26.8474576,28.7881018 26.8474576,22.2 C26.8474576,15.6118982 21.274541,10.2711864 14.4,10.2711864 C7.52545898,10.2711864 1.95254237,15.6118982 1.95254237,22.2 C1.95254237,28.7881018 7.52545898,34.1288136 14.4,34.1288136 Z" id="Combined-Shape-Copy-3" opacity="0.25"></path>
                <path d="M27,34.8 C17.3902454,34.8 9.6,27.0097546 9.6,17.4 C9.6,7.79024535 17.3902454,0 27,0 C36.6097546,0 44.4,7.79024535 44.4,17.4 C44.4,27.0097546 36.6097546,34.8 27,34.8 Z M27.2416667,32.3833333 C35.3832644,32.3833333 41.9833333,25.7832644 41.9833333,17.6416667 C41.9833333,9.50006898 35.3832644,2.9 27.2416667,2.9 C19.100069,2.9 12.5,9.50006898 12.5,17.6416667 C12.5,25.7832644 19.100069,32.3833333 27.2416667,32.3833333 Z" id="Combined-Shape"></path>
            </g>
        </g>
    </g>
</svg>
